<svg width="36" height="31" viewBox="0 0 36 31" fill="none" xmlns="http://www.w3.org/2000/svg">
<path d="M26.5083 23.3459H25.3162C24.5082 24.5959 25.5083 24.5959 25.4691 25.8996C26.0083 25.5959 26.8412 26.1368 27.1612 25.3728L28.0083 24.8459C28.3283 24.0819 27.3262 24.1228 28.0082 23.5959C27.2442 23.2759 26.8283 22.5819 26.5083 23.3459Z" fill="#A9D1F1"/>
<path d="M12.5083 24.3459H11.3162C10.5082 25.5959 11.5083 25.5959 11.4691 26.8996C12.0083 26.5959 12.8412 27.1368 13.1612 26.3728L14.0083 25.8459C14.3283 25.0819 13.3262 25.1228 14.0082 24.5959C13.2442 24.2759 12.8283 23.5819 12.5083 24.3459Z" fill="#A9D1F1"/>
<path d="M9.50829 27.3459H8.31624C7.50823 28.5959 8.50826 28.5959 8.46913 29.8996C9.00826 29.5959 9.84117 30.1368 10.1612 29.3728L11.0083 28.8459C11.3283 28.0819 10.3262 28.1228 11.0082 27.5959C10.2442 27.2759 9.82829 26.5819 9.50829 27.3459Z" fill="#A9D1F1"/>
<path d="M14.5083 27.3459H13.3162C12.5082 28.5959 13.5083 28.5959 13.4691 29.8996C14.0083 29.5959 14.8412 30.1368 15.1612 29.3728L16.0083 28.8459C16.3283 28.0819 15.3262 28.1228 16.0082 27.5959C15.2442 27.2759 14.8283 26.5819 14.5083 27.3459Z" fill="#A9D1F1"/>
<path d="M19.5083 27.3459H18.3162C17.5082 28.5959 18.5083 28.5959 18.4691 29.8996C19.0083 29.5959 19.8412 30.1368 20.1612 29.3728L21.0083 28.8459C21.3283 28.0819 20.3262 28.1228 21.0082 27.5959C20.2442 27.2759 19.8283 26.5819 19.5083 27.3459Z" fill="#A9D1F1"/>
<path d="M25.3532 27.3608L24.173 27.5286C23.549 28.8799 24.539 28.7392 24.6838 30.0354C25.1748 29.6589 26.0755 30.0771 26.2848 29.2757L27.0494 28.6349C27.2587 27.8335 26.2723 28.0149 26.8734 27.3973C26.072 27.188 25.5625 26.5594 25.3532 27.3608Z" fill="#A9D1F1"/>
<path d="M16.5083 23.3459H15.3162C14.5082 24.5959 15.5083 24.5959 15.4691 25.8996C16.0083 25.5959 16.8412 26.1368 17.1612 25.3728L18.0083 24.8459C18.3283 24.0819 17.3262 24.1228 18.0082 23.5959C17.2442 23.2759 16.8283 22.5819 16.5083 23.3459Z" fill="#A9D1F1"/>
<path d="M22.5083 24.3459H21.3162C20.5082 25.5959 21.5083 25.5959 21.4691 26.8996C22.0083 26.5959 22.8412 27.1368 23.1612 26.3728L24.0083 25.8459C24.3283 25.0819 23.3262 25.1228 24.0082 24.5959C23.2442 24.2759 22.8283 23.5819 22.5083 24.3459Z" fill="#A9D1F1"/>
<path d="M8 22C3.582 22 0 18.418 0 14C0 9.582 3.582 6 8 6C8.834 6 9.636 6.128 10.392 6.364C11.518 2.68 14.946 0 19 0C23.97 0 28 4.03 28 9C28 9.47 27.964 9.93 27.894 10.38C28.55 10.134 29.258 10 30 10C33.314 10 36 12.686 36 16C36 19.314 33.314 22 30 22H8Z" fill="url(#paint0_linear_2_526)"/>
<path d="M10 9C10 13.97 14.03 18 19 18C23.502 18 27.23 14.696 27.894 10.38C28.55 10.134 29.258 10 30 10C33.314 10 36 12.686 36 16C36 19.314 33.314 22 30 22H8C3.582 22 0 18.418 0 14C0 9.582 3.582 6 8 6C8.834 6 9.636 6.128 10.392 6.364C10.136 7.198 10 8.082 10 9Z" fill="url(#paint1_radial_2_526)"/>
<path d="M8.50829 23.3459H7.31624C6.50823 24.5959 7.50826 24.5959 7.46913 25.8996C8.00826 25.5959 8.84117 26.1368 9.16118 25.3728L10.0083 24.8459C10.3283 24.0819 9.32623 24.1228 10.0082 23.5959C9.24423 23.2759 8.82829 22.5819 8.50829 23.3459Z" fill="#A9D1F1"/>
<path d="M31.5083 22.3459H30.3162C29.5082 23.5959 30.5083 23.5959 30.4691 24.8996C31.0083 24.5959 31.8412 25.1368 32.1612 24.3728L33.0083 23.8459C33.3283 23.0819 32.3262 23.1228 33.0082 22.5959C32.2442 22.2759 31.8283 21.5819 31.5083 22.3459Z" fill="#A9D1F1"/>
<path d="M5.50829 22.3459H4.31624C3.50823 23.5959 4.50826 23.5959 4.46913 24.8996C5.00826 24.5959 5.84117 25.1368 6.16118 24.3728L7.00829 23.8459C7.32829 23.0819 6.32623 23.1228 7.00824 22.5959C6.24423 22.2759 5.82829 21.5819 5.50829 22.3459Z" fill="#A9D1F1"/>
<defs>
<linearGradient id="paint0_linear_2_526" x1="18" y1="0" x2="18" y2="22" gradientUnits="userSpaceOnUse">
<stop stop-color="#9FC7FF"/>
<stop offset="1" stop-color="#9BC1F5"/>
</linearGradient>
<radialGradient id="paint1_radial_2_526" cx="0" cy="0" r="1" gradientUnits="userSpaceOnUse" gradientTransform="translate(4.75395 -30.6966) rotate(-90) scale(20.9574 6.69705)">
<stop stop-color="#486DA8" stop-opacity="0.4"/>
<stop offset="1" stop-color="#486DA8" stop-opacity="0"/>
</radialGradient>
</defs>
</svg>
